TITLE ""
FILE "Disc3Track19.mp3" MP3
  TRACK 01 AUDIO
    TITLE "Disc3Track19_01"
    INDEX 01 00:00:00
  TRACK 02 AUDIO
    TITLE "Disc3Track19_02"
    INDEX 01 00:01:12
  TRACK 03 AUDIO
    TITLE "Disc3Track19_03"
    INDEX 01 00:02:43
  TRACK 04 AUDIO
    TITLE "Disc3Track19_04"
    INDEX 01 00:03:65
  TRACK 05 AUDIO
    TITLE "Disc3Track19_05"
    INDEX 01 00:08:73
  TRACK 06 AUDIO
    TITLE "Disc3Track19_06"
    INDEX 01 00:09:31
  TRACK 07 AUDIO
    TITLE "Disc3Track19_07"
    INDEX 01 00:10:62
  TRACK 08 AUDIO
    TITLE "Disc3Track19_08"
    INDEX 01 00:11:69
  TRACK 09 AUDIO
    TITLE "Disc3Track19_09"
    INDEX 01 00:13:29
  TRACK 10 AUDIO
    TITLE "Disc3Track19_10"
    INDEX 01 00:13:66
  TRACK 11 AUDIO
    TITLE "Disc3Track19_11"
    INDEX 01 00:14:75
  TRACK 12 AUDIO
    TITLE "Disc3Track19_12"
    INDEX 01 00:18:08
  TRACK 13 AUDIO
    TITLE "Disc3Track19_13"
    INDEX 01 00:19:15
  TRACK 14 AUDIO
    TITLE "Disc3Track19_14"
    INDEX 01 00:20:54
  TRACK 15 AUDIO
    TITLE "Disc3Track19_15"
    INDEX 01 00:21:07
  TRACK 16 AUDIO
    TITLE "Disc3Track19_16"
    INDEX 01 00:22:30
  TRACK 17 AUDIO
    TITLE "Disc3Track19_17"
    INDEX 01 00:24:44
  TRACK 18 AUDIO
    TITLE "Disc3Track19_18"
    INDEX 01 00:25:65
  TRACK 19 AUDIO
    TITLE "Disc3Track19_19"
    INDEX 01 00:29:14
  TRACK 20 AUDIO
    TITLE "Disc3Track19_20"
    INDEX 01 00:29:37
  TRACK 21 AUDIO
    TITLE "Disc3Track19_21"
    INDEX 01 00:30:49
  TRACK 22 AUDIO
    TITLE "Disc3Track19_22"
    INDEX 01 00:32:57
  TRACK 23 AUDIO
    TITLE "Disc3Track19_23"
    INDEX 01 00:33:69
  TRACK 24 AUDIO
    TITLE "Disc3Track19_24"
    INDEX 01 00:37:25
  TRACK 25 AUDIO
    TITLE "Disc3Track19_25"
    INDEX 01 00:37:62
  TRACK 26 AUDIO
    TITLE "Disc3Track19_26"
    INDEX 01 00:39:06
  TRACK 27 AUDIO
    TITLE "Disc3Track19_27"
    INDEX 01 00:42:09
  TRACK 28 AUDIO
    TITLE "Disc3Track19_28"
    INDEX 01 00:43:22
  TRACK 29 AUDIO
    TITLE "Disc3Track19_29"
    INDEX 01 00:46:32
  TRACK 30 AUDIO
    TITLE "Disc3Track19_30"
    INDEX 01 00:46:57
  TRACK 31 AUDIO
    TITLE "Disc3Track19_31"
    INDEX 01 00:47:75
  TRACK 32 AUDIO
    TITLE "Disc3Track19_32"
    INDEX 01 00:50:59
  TRACK 33 AUDIO
    TITLE "Disc3Track19_33"
    INDEX 01 00:52:03
  TRACK 34 AUDIO
    TITLE "Disc3Track19_34"
    INDEX 01 00:52:31
  TRACK 35 AUDIO
    TITLE "Disc3Track19_35"
    INDEX 01 00:53:65
  TRACK 36 AUDIO
    TITLE "Disc3Track19_36"
    INDEX 01 00:55:05
  TRACK 37 AUDIO
    TITLE "Disc3Track19_37"
    INDEX 01 00:56:38
  TRACK 38 AUDIO
    TITLE "Disc3Track19_38"
    INDEX 01 00:59:19
  TRACK 39 AUDIO
    TITLE "Disc3Track19_39"
    INDEX 01 00:59:48
  TRACK 40 AUDIO
    TITLE "Disc3Track19_40"
    INDEX 01 01:00:69
  TRACK 41 AUDIO
    TITLE "Disc3Track19_41"
    INDEX 01 01:03:21
  TRACK 42 AUDIO
    TITLE "Disc3Track19_42"
    INDEX 01 01:04:40
  TRACK 43 AUDIO
    TITLE "Disc3Track19_43"
    INDEX 01 01:08:45
